<?xml version="1.0" encoding="UTF-8" standalone="no"?>
<!-- Created with Inkscape (http://www.inkscape.org/) -->

<svg
   xmlns:dc="http://purl.org/dc/elements/1.1/"
   xmlns:cc="http://creativecommons.org/ns#"
   xmlns:rdf="http://www.w3.org/1999/02/22-rdf-syntax-ns#"
   xmlns:svg="http://www.w3.org/2000/svg"
   xmlns="http://www.w3.org/2000/svg"
   xmlns:sodipodi="http://sodipodi.sourceforge.net/DTD/sodipodi-0.dtd"
   xmlns:inkscape="http://www.inkscape.org/namespaces/inkscape"
   width="600"
   height="160"
   id="svg3057"
   version="1.1"
   inkscape:version="0.48.1 r9760"
   sodipodi:docname="New document 2">
  <defs
     id="defs3059" />
  <sodipodi:namedview
     id="base"
     pagecolor="#ffffff"
     bordercolor="#666666"
     borderopacity="1.0"
     inkscape:pageopacity="0.0"
     inkscape:pageshadow="2"
     inkscape:zoom="0.35"
     inkscape:cx="375"
     inkscape:cy="520"
     inkscape:document-units="px"
     inkscape:current-layer="layer1"
     showgrid="false"
     inkscape:window-width="1280"
     inkscape:window-height="748"
     inkscape:window-x="0"
     inkscape:window-y="26"
     inkscape:window-maximized="1" />
  <metadata
     id="metadata3062">
    <rdf:RDF>
      <cc:Work
         rdf:about="">
        <dc:format>image/svg+xml</dc:format>
        <dc:type
           rdf:resource="http://purl.org/dc/dcmitype/StillImage" />
        <dc:title></dc:title>
      </cc:Work>
    </rdf:RDF>
  </metadata>
  <g
     inkscape:label="Layer 1"
     inkscape:groupmode="layer"
     id="layer1"
     transform="translate(0,-892.36218)">
    <g
       id="g27"
       transform="translate(12.425139,454.50043)">
      <path
         stroke-miterlimit="10"
         d="m 550.838,555.946 c 0,0 -322.354,31.982 -274.616,-11.812"
         id="path29"
         inkscape:connector-curvature="0"
         style="fill:none;stroke:#000000;stroke-width:5;stroke-miterlimit:10" />
      <path
         stroke-miterlimit="10"
         d="m 28.74,487.629 c 0,0 322.353,-31.981 274.616,11.816"
         id="path31"
         inkscape:connector-curvature="0"
         style="fill:none;stroke:#000000;stroke-width:5;stroke-miterlimit:10" />
      <g
         id="g33">
        <path
           d="m 110.106,548.514 h -3.284 v -11.586 h -0.141 c -1.626,3.909 -4.121,7.029 -7.482,9.358 -3.362,2.329 -7.17,3.495 -11.423,3.495 -4.66,0 -8.397,-1.274 -11.211,-3.824 -2.814,-2.548 -4.222,-6.09 -4.222,-10.625 0,-4.533 1.548,-8.099 4.644,-10.695 3.096,-2.596 8.35,-4.456 15.762,-5.582 l 14.073,-2.158 c 0,-6.223 -1.11,-10.852 -3.331,-13.885 -2.221,-3.033 -5.676,-4.551 -10.367,-4.551 -5.411,0 -10.883,2.018 -16.418,6.052 v -3.753 c 2.189,-1.563 4.753,-2.854 7.693,-3.87 2.939,-1.016 5.926,-1.524 8.96,-1.524 11.165,0 16.747,6.881 16.747,20.641 v 32.507 z m -3.284,-28.521 -13.463,1.97 c -6.537,0.971 -11.103,2.471 -13.698,4.504 -2.596,2.033 -3.894,4.895 -3.894,8.584 0,3.659 1.086,6.514 3.26,8.562 2.173,2.048 5.214,3.072 9.124,3.072 3.534,0 6.723,-0.945 9.569,-2.838 2.846,-1.892 5.074,-4.573 6.685,-8.045 1.61,-3.472 2.416,-7.349 2.416,-11.634 v -4.175 z"
           id="path35"
           inkscape:connector-curvature="0"
           style="fill:#00aeef" />
        <path
           d="m 164.381,548.514 h -3.284 v -31.617 c 0,-12.29 -4.848,-18.436 -14.542,-18.436 -3.628,0 -6.763,0.932 -9.405,2.791 -2.643,1.861 -4.684,4.527 -6.122,7.998 -1.439,3.473 -2.158,7.209 -2.158,11.212 v 28.052 h -3.284 v -51.882 h 3.284 v 11.165 h 0.188 c 1.47,-3.972 3.8,-7.037 6.989,-9.195 3.19,-2.157 6.833,-3.236 10.93,-3.236 5.629,0 9.937,1.744 12.924,5.23 2.986,3.487 4.48,8.701 4.48,15.645 v 32.273 z"
           id="path37"
           inkscape:connector-curvature="0"
           style="fill:#00aeef" />
        <path
           d="m 220.297,548.514 h -3.284 v -10.602 h -0.188 c -1.626,3.659 -4.121,6.553 -7.482,8.679 -3.361,2.126 -7.216,3.19 -11.563,3.19 -4.441,0 -8.303,-1.104 -11.587,-3.308 -3.284,-2.204 -5.81,-5.324 -7.576,-9.358 -1.767,-4.034 -2.65,-8.631 -2.65,-13.791 0,-5.566 1.008,-10.469 3.025,-14.707 2.017,-4.237 4.832,-7.506 8.444,-9.805 3.612,-2.298 7.654,-3.447 12.126,-3.447 3.846,0 7.271,0.867 10.273,2.604 3.002,1.736 5.332,4.215 6.99,7.436 h 0.188 v -33.682 h 3.284 v 76.791 z m -3.283,-22.563 v -9.195 c 0,-3.502 -0.711,-6.645 -2.134,-9.429 -1.423,-2.782 -3.471,-4.956 -6.145,-6.521 -2.674,-1.563 -5.856,-2.346 -9.546,-2.346 -3.784,0 -7.208,1.032 -10.273,3.097 -3.065,2.063 -5.426,4.948 -7.083,8.655 -1.658,3.705 -2.486,7.951 -2.486,12.735 0,7.256 1.688,13.025 5.066,17.31 3.377,4.285 7.912,6.427 13.604,6.427 3.721,0 6.997,-0.828 9.828,-2.486 2.83,-1.657 5.066,-4.12 6.708,-7.388 1.64,-3.267 2.461,-6.888 2.461,-10.859 z"
           id="path39"
           inkscape:connector-curvature="0"
           style="fill:#00aeef" />
        <path
           d="m 260.64,499.446 c -1.689,-0.563 -3.487,-0.845 -5.395,-0.845 -3.065,0 -5.786,1.111 -8.163,3.331 -2.377,2.221 -4.151,5.317 -5.324,9.288 -1.173,3.973 -1.759,8.678 -1.759,14.12 v 23.173 h -3.284 V 496.631 H 240 v 12.29 h 0.234 c 1.126,-4.252 3.026,-7.544 5.7,-9.874 2.674,-2.329 5.887,-3.495 9.64,-3.495 1.97,0 3.659,0.219 5.066,0.656 v 3.238 z"
           id="path41"
           inkscape:connector-curvature="0"
           style="fill:#00aeef" />
        <path
           d="m 290.662,549.781 c -4.816,0 -9.07,-1.127 -12.76,-3.378 -3.69,-2.252 -6.537,-5.425 -8.538,-9.522 -2.001,-4.097 -3.002,-8.803 -3.002,-14.12 0,-5.504 1.024,-10.335 3.072,-14.495 2.048,-4.159 4.949,-7.349 8.702,-9.57 3.752,-2.22 8.037,-3.33 12.853,-3.33 7.318,0 13.096,2.479 17.333,7.436 4.237,4.957 6.356,11.626 6.356,20.007 0,8.162 -2.174,14.698 -6.521,19.608 -4.345,4.909 -10.177,7.364 -17.495,7.364 z m 0.328,-51.32 c -6.537,0 -11.712,2.197 -15.527,6.592 -3.816,4.394 -5.723,10.391 -5.723,17.989 0,7.224 1.892,12.971 5.676,17.239 3.784,4.27 8.85,6.403 15.199,6.403 6.536,0 11.617,-2.126 15.245,-6.38 3.628,-4.252 5.442,-10.18 5.442,-17.779 0,-7.629 -1.752,-13.549 -5.254,-17.755 -3.503,-4.206 -8.522,-6.309 -15.058,-6.309 z"
           id="path43"
           inkscape:connector-curvature="0"
           style="fill:#00aeef" />
        <path
           d="m 395.975,548.514 h -3.283 v -33.07 c 0,-11.321 -4.426,-16.982 -13.275,-16.982 -3.159,0 -5.927,0.791 -8.303,2.369 -2.377,1.58 -4.262,3.926 -5.653,7.037 -1.391,3.111 -2.087,6.419 -2.087,9.921 v 30.726 h -3.284 v -31.898 c 0,-12.103 -4.44,-18.154 -13.322,-18.154 -4.91,0 -8.827,1.838 -11.751,5.512 -2.925,3.676 -4.386,8.515 -4.386,14.52 v 30.021 h -3.284 v -51.882 h 3.284 v 9.429 h 0.234 c 1.47,-3.377 3.636,-6.004 6.497,-7.881 2.861,-1.876 6.152,-2.814 9.874,-2.814 3.909,0 7.17,1.072 9.781,3.213 2.61,2.143 4.417,5.2 5.418,9.172 1.532,-3.972 3.8,-7.029 6.802,-9.172 3.002,-2.141 6.552,-3.213 10.648,-3.213 5.348,0 9.366,1.682 12.056,5.043 2.69,3.361 4.034,8.295 4.034,14.8 v 33.303 z"
           id="path45"
           inkscape:connector-curvature="0"
           style="fill:#00aeef" />
        <path
           d="M 449.733,521.963 H 410.61 c 0,7.851 1.673,13.933 5.02,18.248 3.346,4.316 7.99,6.474 13.932,6.474 3.033,0 5.927,-0.445 8.679,-1.337 2.752,-0.891 5.66,-2.463 8.726,-4.715 v 3.613 c -2.127,1.531 -4.011,2.643 -5.653,3.33 -1.642,0.688 -3.487,1.227 -5.535,1.618 -2.049,0.391 -4.292,0.587 -6.731,0.587 -6.818,0 -12.181,-2.463 -16.09,-7.389 -3.91,-4.926 -5.864,-11.688 -5.864,-20.289 0,-5.254 0.962,-9.913 2.886,-13.979 1.923,-4.065 4.628,-7.208 8.115,-9.43 3.486,-2.22 7.435,-3.33 11.845,-3.33 6.38,0 11.273,2.221 14.683,6.661 3.408,4.441 5.113,10.728 5.113,18.858 v 1.08 z m -3.518,-3.049 c -0.219,-6.755 -1.782,-11.852 -4.69,-15.293 -2.909,-3.439 -6.85,-5.16 -11.821,-5.16 -5.349,0 -9.711,1.822 -13.088,5.465 -3.378,3.645 -5.364,8.641 -5.958,14.988 h 35.557 z"
           id="path47"
           inkscape:connector-curvature="0"
           style="fill:#00aeef" />
        <path
           d="m 503.022,548.514 h -3.283 v -10.602 h -0.188 c -1.626,3.659 -4.12,6.553 -7.481,8.679 -3.362,2.126 -7.217,3.19 -11.563,3.19 -4.441,0 -8.303,-1.104 -11.587,-3.308 -3.283,-2.204 -5.81,-5.324 -7.576,-9.358 -1.766,-4.034 -2.65,-8.631 -2.65,-13.791 0,-5.566 1.009,-10.469 3.026,-14.707 2.017,-4.237 4.831,-7.506 8.443,-9.805 3.612,-2.298 7.653,-3.447 12.126,-3.447 3.847,0 7.271,0.867 10.273,2.604 3.002,1.737 5.332,4.215 6.989,7.436 h 0.188 v -33.682 h 3.283 v 76.791 z m -3.283,-22.563 v -9.195 c 0,-3.502 -0.712,-6.645 -2.135,-9.429 -1.424,-2.782 -3.472,-4.956 -6.146,-6.521 -2.674,-1.563 -5.856,-2.346 -9.546,-2.346 -3.784,0 -7.209,1.032 -10.273,3.097 -3.065,2.063 -5.426,4.948 -7.083,8.655 -1.658,3.705 -2.486,7.951 -2.486,12.735 0,7.256 1.688,13.025 5.066,17.31 3.377,4.285 7.911,6.427 13.604,6.427 3.722,0 6.997,-0.828 9.828,-2.486 2.83,-1.657 5.065,-4.12 6.708,-7.388 1.642,-3.267 2.463,-6.888 2.463,-10.859 z"
           id="path49"
           inkscape:connector-curvature="0"
           style="fill:#00aeef" />
        <path
           d="m 554.624,548.514 h -3.283 v -11.586 h -0.142 c -1.626,3.909 -4.12,7.029 -7.481,9.358 -3.362,2.329 -7.17,3.495 -11.423,3.495 -4.66,0 -8.396,-1.274 -11.211,-3.824 -2.815,-2.548 -4.223,-6.09 -4.223,-10.625 0,-4.533 1.548,-8.099 4.645,-10.695 3.096,-2.596 8.35,-4.456 15.762,-5.582 l 14.073,-2.158 c 0,-6.223 -1.111,-10.852 -3.331,-13.885 -2.221,-3.033 -5.676,-4.551 -10.367,-4.551 -5.41,0 -10.883,2.018 -16.418,6.052 v -3.753 c 2.188,-1.563 4.753,-2.854 7.692,-3.87 2.939,-1.016 5.927,-1.524 8.96,-1.524 11.165,0 16.747,6.881 16.747,20.641 v 32.507 z m -3.283,-28.521 -13.464,1.97 c -6.536,0.971 -11.102,2.471 -13.697,4.504 -2.597,2.033 -3.894,4.895 -3.894,8.584 0,3.659 1.086,6.514 3.26,8.562 2.174,2.048 5.215,3.072 9.124,3.072 3.534,0 6.724,-0.945 9.57,-2.838 2.845,-1.892 5.073,-4.573 6.685,-8.045 1.61,-3.472 2.416,-7.349 2.416,-11.634 v -4.175 z"
           id="path51"
           inkscape:connector-curvature="0"
           style="fill:#00aeef" />
      </g>
    </g>
  </g>
</svg>
