<?xml version="1.0" encoding="UTF-8" standalone="no"?>
<!-- Generator: Adobe Illustrator 15.1.0, SVG Export Plug-In . SVG Version: 6.00 Build 0)  -->

<svg
   xmlns:dc="http://purl.org/dc/elements/1.1/"
   xmlns:cc="http://creativecommons.org/ns#"
   xmlns:rdf="http://www.w3.org/1999/02/22-rdf-syntax-ns#"
   xmlns:svg="http://www.w3.org/2000/svg"
   xmlns="http://www.w3.org/2000/svg"
   xmlns:sodipodi="http://sodipodi.sourceforge.net/DTD/sodipodi-0.dtd"
   xmlns:inkscape="http://www.inkscape.org/namespaces/inkscape"
   version="1.1"
   id="Layer_1"
   x="0px"
   y="0px"
   width="600"
   height="160"
   viewBox="0 0 599.99997 160"
   enable-background="new 0 0 595.28 841.89"
   xml:space="preserve"
   inkscape:version="0.48.1 r9760"
   sodipodi:docname="Andromeda_final.svg"><metadata
   id="metadata31"><rdf:RDF><cc:Work
       rdf:about=""><dc:format>image/svg+xml</dc:format><dc:type
         rdf:resource="http://purl.org/dc/dcmitype/StillImage" /><dc:title></dc:title></cc:Work></rdf:RDF></metadata><defs
   id="defs29" /><sodipodi:namedview
   pagecolor="#ffffff"
   bordercolor="#666666"
   borderopacity="1"
   objecttolerance="10"
   gridtolerance="10"
   guidetolerance="10"
   inkscape:pageopacity="0"
   inkscape:pageshadow="2"
   inkscape:window-width="1280"
   inkscape:window-height="748"
   id="namedview27"
   showgrid="false"
   inkscape:zoom="1.1592963"
   inkscape:cx="361.66857"
   inkscape:cy="183.02191"
   inkscape:window-x="0"
   inkscape:window-y="26"
   inkscape:window-maximized="1"
   inkscape:current-layer="Layer_1" />
<path
   stroke-miterlimit="10"
   d="m 39.813884,64.758073 c 0,0 319.109006,-45.587 273.522006,0"
   id="path3"
   inkscape:connector-curvature="0"
   style="fill:none;stroke:#000000;stroke-width:5;stroke-miterlimit:10" />
<g
   id="g5"
   transform="translate(12.938883,-335.12793)">
	<path
   d="m 110.627,449.273 h -3.268 v -11.53 h -0.14 c -1.619,3.891 -4.101,6.995 -7.445,9.313 -3.346,2.318 -7.135,3.479 -11.367,3.479 -4.638,0 -8.356,-1.268 -11.157,-3.805 -2.801,-2.536 -4.201,-6.061 -4.201,-10.573 0,-4.512 1.541,-8.06 4.621,-10.644 3.081,-2.582 8.309,-4.435 15.685,-5.555 l 14.004,-2.147 c 0,-6.193 -1.105,-10.799 -3.314,-13.817 -2.21,-3.019 -5.648,-4.528 -10.316,-4.528 -5.384,0 -10.83,2.007 -16.338,6.022 v -3.734 c 2.178,-1.556 4.73,-2.84 7.655,-3.851 2.925,-1.011 5.897,-1.517 8.916,-1.517 11.11,0 16.665,6.847 16.665,20.539 v 32.348 z m -3.268,-28.382 -13.397,1.961 c -6.504,0.965 -11.048,2.459 -13.63,4.481 -2.583,2.023 -3.875,4.87 -3.875,8.542 0,3.642 1.081,6.481 3.244,8.52 2.163,2.038 5.189,3.058 9.079,3.058 3.517,0 6.691,-0.941 9.523,-2.824 2.832,-1.883 5.049,-4.552 6.652,-8.006 1.603,-3.454 2.404,-7.313 2.404,-11.577 v -4.155 z"
   id="path7"
   inkscape:connector-curvature="0"
   style="fill:#00aeef" />
	<path
   d="m 164.636,449.273 h -3.268 V 417.81 c 0,-12.23 -4.824,-18.346 -14.471,-18.346 -3.61,0 -6.73,0.926 -9.359,2.778 -2.63,1.852 -4.661,4.504 -6.092,7.959 -1.432,3.454 -2.147,7.173 -2.147,11.156 v 27.916 h -3.268 v -51.629 h 3.268 v 11.11 h 0.187 c 1.462,-3.952 3.781,-7.002 6.956,-9.149 3.175,-2.147 6.799,-3.221 10.876,-3.221 5.602,0 9.888,1.735 12.86,5.205 2.972,3.47 4.458,8.659 4.458,15.568 v 32.116 z"
   id="path9"
   inkscape:connector-curvature="0"
   style="fill:#00aeef" />
	<path
   d="m 220.279,449.273 h -3.268 v -10.55 h -0.187 c -1.618,3.641 -4.101,6.52 -7.445,8.636 -3.346,2.116 -7.182,3.175 -11.507,3.175 -4.419,0 -8.262,-1.098 -11.53,-3.291 -3.268,-2.194 -5.781,-5.299 -7.539,-9.313 -1.758,-4.014 -2.637,-8.589 -2.637,-13.724 0,-5.54 1.003,-10.417 3.011,-14.635 2.007,-4.217 4.808,-7.469 8.402,-9.756 3.594,-2.287 7.616,-3.431 12.067,-3.431 3.828,0 7.235,0.863 10.223,2.59 2.987,1.728 5.306,4.194 6.955,7.399 h 0.187 v -33.517 h 3.268 v 76.417 z m -3.267,-22.453 v -9.15 c 0,-3.485 -0.708,-6.613 -2.124,-9.383 -1.417,-2.77 -3.455,-4.932 -6.115,-6.489 -2.661,-1.556 -5.828,-2.334 -9.5,-2.334 -3.766,0 -7.173,1.027 -10.223,3.081 -3.05,2.054 -5.4,4.925 -7.049,8.612 -1.65,3.688 -2.474,7.913 -2.474,12.675 0,7.22 1.68,12.962 5.042,17.225 3.361,4.264 7.873,6.396 13.537,6.396 3.703,0 6.963,-0.824 9.78,-2.475 2.816,-1.648 5.042,-4.1 6.675,-7.352 1.633,-3.252 2.451,-6.854 2.451,-10.806 z"
   id="path11"
   inkscape:connector-curvature="0"
   style="fill:#00aeef" />
	<path
   d="m 260.425,400.445 c -1.681,-0.56 -3.471,-0.84 -5.369,-0.84 -3.05,0 -5.757,1.105 -8.122,3.314 -2.366,2.21 -4.131,5.291 -5.298,9.243 -1.167,3.953 -1.75,8.636 -1.75,14.051 v 23.061 h -3.268 v -51.629 h 3.268 v 12.23 h 0.233 c 1.12,-4.232 3.011,-7.507 5.672,-9.826 2.661,-2.318 5.858,-3.478 9.593,-3.478 1.96,0 3.641,0.218 5.042,0.653 v 3.221 z"
   id="path13"
   inkscape:connector-curvature="0"
   style="fill:#00aeef" />
	<path
   d="m 290.3,450.534 c -4.792,0 -9.025,-1.121 -12.697,-3.361 -3.673,-2.24 -6.505,-5.398 -8.496,-9.477 -1.992,-4.076 -2.987,-8.76 -2.987,-14.051 0,-5.477 1.019,-10.285 3.057,-14.424 2.038,-4.139 4.925,-7.313 8.66,-9.523 3.734,-2.209 7.998,-3.314 12.79,-3.314 7.282,0 13.032,2.466 17.25,7.398 4.216,4.933 6.325,11.57 6.325,19.91 0,8.123 -2.164,14.627 -6.489,19.513 -4.327,4.886 -10.131,7.329 -17.413,7.329 z m 0.326,-51.069 c -6.504,0 -11.655,2.187 -15.451,6.559 -3.797,4.373 -5.695,10.34 -5.695,17.902 0,7.189 1.882,12.907 5.648,17.155 3.765,4.248 8.806,6.372 15.125,6.372 6.503,0 11.561,-2.116 15.171,-6.349 3.609,-4.232 5.415,-10.13 5.415,-17.692 0,-7.593 -1.743,-13.483 -5.229,-17.668 -3.486,-4.185 -8.48,-6.279 -14.984,-6.279 z"
   id="path15"
   inkscape:connector-curvature="0"
   style="fill:#00aeef" />
	<path
   d="m 395.098,449.273 h -3.268 v -32.91 c 0,-11.265 -4.403,-16.898 -13.21,-16.898 -3.144,0 -5.898,0.787 -8.263,2.357 -2.365,1.572 -4.24,3.906 -5.625,7.002 -1.385,3.097 -2.077,6.388 -2.077,9.873 v 30.576 h -3.268 V 417.53 c 0,-12.043 -4.42,-18.065 -13.258,-18.065 -4.886,0 -8.783,1.829 -11.693,5.485 -2.91,3.657 -4.364,8.473 -4.364,14.448 v 29.876 h -3.268 v -51.629 h 3.268 v 9.383 h 0.233 c 1.462,-3.361 3.618,-5.975 6.465,-7.842 2.848,-1.867 6.123,-2.801 9.826,-2.801 3.891,0 7.135,1.066 9.733,3.197 2.598,2.132 4.396,5.174 5.392,9.126 1.524,-3.952 3.781,-6.994 6.769,-9.126 2.987,-2.131 6.52,-3.197 10.597,-3.197 5.321,0 9.319,1.673 11.997,5.018 2.676,3.346 4.014,8.255 4.014,14.728 v 33.142 z"
   id="path17"
   inkscape:connector-curvature="0"
   style="fill:#00aeef" />
	<path
   d="m 448.594,422.853 h -38.932 c 0,7.812 1.665,13.864 4.995,18.158 3.33,4.295 7.951,6.442 13.864,6.442 3.018,0 5.896,-0.443 8.636,-1.331 2.738,-0.887 5.632,-2.45 8.683,-4.691 v 3.595 c -2.117,1.525 -3.991,2.63 -5.625,3.314 -1.634,0.684 -3.471,1.221 -5.509,1.61 -2.038,0.389 -4.271,0.584 -6.698,0.584 -6.785,0 -12.121,-2.451 -16.012,-7.353 -3.891,-4.902 -5.835,-11.631 -5.835,-20.189 0,-5.229 0.957,-9.865 2.871,-13.911 1.914,-4.045 4.605,-7.173 8.076,-9.383 3.469,-2.209 7.398,-3.314 11.786,-3.314 6.349,0 11.219,2.21 14.611,6.628 3.392,4.419 5.088,10.674 5.088,18.766 v 1.075 z m -3.501,-3.036 c -0.218,-6.722 -1.773,-11.794 -4.668,-15.218 -2.895,-3.423 -6.815,-5.135 -11.764,-5.135 -5.321,0 -9.663,1.813 -13.023,5.438 -3.361,3.625 -5.338,8.597 -5.929,14.914 h 35.384 z"
   id="path19"
   inkscape:connector-curvature="0"
   style="fill:#00aeef" />
	<path
   d="m 501.623,449.273 h -3.268 v -10.55 h -0.187 c -1.619,3.641 -4.101,6.52 -7.445,8.636 -3.346,2.116 -7.182,3.175 -11.507,3.175 -4.42,0 -8.263,-1.098 -11.53,-3.291 -3.268,-2.194 -5.781,-5.299 -7.539,-9.313 -1.759,-4.014 -2.638,-8.589 -2.638,-13.724 0,-5.54 1.004,-10.417 3.011,-14.635 2.008,-4.217 4.809,-7.469 8.403,-9.756 3.594,-2.287 7.616,-3.431 12.066,-3.431 3.828,0 7.235,0.863 10.223,2.59 2.988,1.728 5.306,4.194 6.956,7.399 h 0.187 v -33.517 h 3.268 v 76.417 z m -3.268,-22.453 v -9.15 c 0,-3.485 -0.708,-6.613 -2.124,-9.383 -1.416,-2.77 -3.454,-4.932 -6.115,-6.489 -2.661,-1.556 -5.828,-2.334 -9.499,-2.334 -3.767,0 -7.174,1.027 -10.224,3.081 -3.05,2.054 -5.399,4.925 -7.049,8.612 -1.649,3.688 -2.474,7.913 -2.474,12.675 0,7.22 1.681,12.962 5.041,17.225 3.361,4.264 7.873,6.396 13.538,6.396 3.703,0 6.962,-0.824 9.779,-2.475 2.816,-1.648 5.041,-4.1 6.675,-7.352 1.634,-3.252 2.452,-6.854 2.452,-10.806 z"
   id="path21"
   inkscape:connector-curvature="0"
   style="fill:#00aeef" />
	<path
   d="m 552.971,449.273 h -3.268 v -11.53 h -0.14 c -1.618,3.891 -4.101,6.995 -7.445,9.313 -3.346,2.318 -7.135,3.479 -11.367,3.479 -4.637,0 -8.355,-1.268 -11.156,-3.805 -2.801,-2.536 -4.201,-6.061 -4.201,-10.573 0,-4.512 1.54,-8.06 4.621,-10.644 3.081,-2.582 8.31,-4.435 15.685,-5.555 l 14.004,-2.147 c 0,-6.193 -1.104,-10.799 -3.313,-13.817 -2.21,-3.019 -5.648,-4.528 -10.316,-4.528 -5.385,0 -10.83,2.007 -16.339,6.022 v -3.734 c 2.179,-1.556 4.73,-2.84 7.656,-3.851 2.925,-1.011 5.896,-1.517 8.916,-1.517 11.109,0 16.664,6.847 16.664,20.539 v 32.348 z m -3.268,-28.382 -13.396,1.961 c -6.505,0.965 -11.048,2.459 -13.631,4.481 -2.584,2.023 -3.875,4.87 -3.875,8.542 0,3.642 1.081,6.481 3.244,8.52 2.163,2.039 5.189,3.058 9.08,3.058 3.516,0 6.69,-0.941 9.522,-2.824 2.832,-1.883 5.049,-4.552 6.652,-8.006 1.603,-3.454 2.403,-7.313 2.403,-11.577 v -4.155 z"
   id="path23"
   inkscape:connector-curvature="0"
   style="fill:#00aeef" />
</g>
<path
   stroke-miterlimit="10"
   d="m 561.53289,110.34307 c 0,0 -319.11,45.58701 -273.522,0"
   id="path25"
   inkscape:connector-curvature="0"
   style="fill:none;stroke:#000000;stroke-width:5;stroke-miterlimit:10" />
</svg>